<svg width="900" height="600" xmlns="http://www.w3.org/2000/svg">
    <g stroke-linejoin="bevel">
        <path d="m462 303-46-15 6 85Z" fill="#eef2f4" stroke="#eef2f4"/>
        <path d="m521 202-142 37 37 49Z" fill="#ebf0f2" stroke="#ebf0f2"/>
        <path d="m268 321 44 91 110-39Z" fill="#dee6e9" stroke="#dee6e9"/>
        <path d="m422 373 91 62-51-132Z" fill="#eef2f4" stroke="#eef2f4"/>
        <path d="m268 321 154 52-6-85Z" fill="#f8fafb" stroke="#f8fafb"/>
        <path d="m422 373 68 90 23-28Z" fill="#dee6e9" stroke="#dee6e9"/>
        <path d="m394 498 96-35-68-90Z" fill="#fcfcfd" stroke="#fcfcfd"/>
        <path d="M632 322 521 202l-59 101Z" fill="#dee6e9" stroke="#dee6e9"/>
        <path d="m462 303 59-101-105 86Z" fill="#e8edf0" stroke="#e8edf0"/>
        <path d="m379 239-111 82 148-33ZM183 461l137-1-8-48Z" fill="#f1f5f6" stroke="#f1f5f6"/>
        <path d="m312 412 8 48 102-87Z" fill="#fcfcfd" stroke="#fcfcfd"/>
        <path d="m320 460 74 38 28-125Z" fill="#ebf0f2" stroke="#ebf0f2"/>
        <path d="m630 464-28-78-89 49Z" fill="#eef2f4" stroke="#eef2f4"/>
        <path d="m513 435 89-49-140-83Z" fill="#e4ebed" stroke="#e4ebed"/>
        <path d="m521 202-109-67-33 104Z" fill="#e1e8eb" stroke="#e1e8eb"/>
        <path d="m379 239-156 24 45 58Z" fill="#f8fafb" stroke="#f8fafb"/>
        <path d="m602 386 30-64-170-19Z" fill="#fff" stroke="#fff"/>
        <path d="m632 322-69-158-42 38Z" fill="#f1f5f6" stroke="#f1f5f6"/>
        <path d="m521 202 17-106-126 39Z" fill="#e8edf0" stroke="#e8edf0"/>
        <path d="m269 170-46 93 156-24Z" fill="#e4ebed" stroke="#e4ebed"/>
        <path d="m268 321-105 87 149 4Z" fill="#ebf0f2" stroke="#ebf0f2"/>
        <path d="m320 115-51 55 110 69ZM269 170l-35 22-11 71Z" fill="#fff" stroke="#fff"/>
        <path d="m412 135-92-20 59 124Z" fill="#f8fafb" stroke="#f8fafb"/>
        <path d="m269 170-59-93 24 115Z" fill="#e8edf0" stroke="#e8edf0"/>
        <path d="M420 0 320 115l92 20Z" fill="#eef2f4" stroke="#eef2f4"/>
        <path d="m490 463 140 1-117-29ZM602 386l93-24-63-40Z" fill="#f1f5f6" stroke="#f1f5f6"/>
        <path d="m573 600 57-136-140-1Z" fill="#e4ebed" stroke="#e4ebed"/>
        <path d="m609 71-71 25 25 68Z" fill="#fff" stroke="#fff"/>
        <path d="m563 164-25-68-17 106Z" fill="#dee6e9" stroke="#dee6e9"/>
        <path d="m630 464 65-102-93 24Z" fill="#fcfcfd" stroke="#fcfcfd"/>
        <path d="m632 322 92-83-161-75Z" fill="#fff" stroke="#fff"/>
        <path d="M301 600h99l-6-102Z" fill="#e4ebed" stroke="#e4ebed"/>
        <path d="m394 498 89 102 7-137Z" fill="#e8edf0" stroke="#e8edf0"/>
        <path d="M400 600h83l-89-102Z" fill="#fff" stroke="#fff"/>
        <path d="m103 280 60 128 60-145Z" fill="#f1f5f6" stroke="#f1f5f6"/>
        <path d="m223 263-60 145 105-87Z" fill="#fcfcfd" stroke="#fcfcfd"/>
        <path d="m320 460-19 140 93-102Z" fill="#f8fafb" stroke="#f8fafb"/>
        <path d="m573 600 87-120-30-16Z" fill="#e8edf0" stroke="#e8edf0"/>
        <path d="m630 464 30 16 35-118Z" fill="#fff" stroke="#fff"/>
        <path d="m163 408 20 53 129-49Z" fill="#dee6e9" stroke="#dee6e9"/>
        <path d="m183 461 118 139 19-140Z" fill="#e4ebed" stroke="#e4ebed"/>
        <path d="m823 373-95-67-33 56Z" fill="#e1e8eb" stroke="#e1e8eb"/>
        <path d="m695 362 33-56-96 16Z" fill="#ebf0f2" stroke="#ebf0f2"/>
        <path d="M483 600h90l-83-137Z" fill="#eef2f4" stroke="#eef2f4"/>
        <path d="m728 306-4-67-92 83Z" fill="#f8fafb" stroke="#f8fafb"/>
        <path d="m699 113-90-42-46 93Z" fill="#e8edf0" stroke="#e8edf0"/>
        <path d="M496 0h-76l-8 135ZM65 230l38 50 131-88Z" fill="#f8fafb" stroke="#f8fafb"/>
        <path d="m234 192-131 88 120-17Z" fill="#e1e8eb" stroke="#e1e8eb"/>
        <path d="m163 408-66 28 86 25Z" fill="#eef2f4" stroke="#eef2f4"/>
        <path d="m496 0-84 135 126-39Z" fill="#f5f7f8" stroke="#f5f7f8"/>
        <path d="M320 115 210 77l59 93Z" fill="#ebf0f2" stroke="#ebf0f2"/>
        <path d="M314 0 210 77l110 38Z" fill="#eef2f4" stroke="#eef2f4"/>
        <path d="M609 71 496 0l42 96Z" fill="#f8fafb" stroke="#f8fafb"/>
        <path d="m724 239-25-126-136 51Z" fill="#e8edf0" stroke="#e8edf0"/>
        <path d="m609 71 30-71H496Z" fill="#eef2f4" stroke="#eef2f4"/>
        <path d="m103 280-6 156 66-28Z" fill="#f5f7f8" stroke="#f5f7f8"/>
        <path d="m183 461 6 139h112Z" fill="#fff" stroke="#fff"/>
        <path d="M420 0H314l6 115Z" fill="#e8edf0" stroke="#e8edf0"/>
        <path d="m68 539 121 61-6-139Z" fill="#f8fafb" stroke="#f8fafb"/>
        <path d="M115 83 65 230l169-38Z" fill="#f5f7f8" stroke="#f5f7f8"/>
        <path d="M103 280 0 323l97 113Z" fill="#e4ebed" stroke="#e4ebed"/>
        <path d="M669 0h-30l-30 71Z" fill="#f1f5f6" stroke="#f1f5f6"/>
        <path d="m724 239 46-105-71-21Z" fill="#ebf0f2" stroke="#ebf0f2"/>
        <path d="M699 113 669 0l-60 71Z" fill="#f5f7f8" stroke="#f5f7f8"/>
        <path d="m826 191-56-57-46 105Z" fill="#dee6e9" stroke="#dee6e9"/>
        <path d="m817 509 6-136-128-11Z" fill="#fcfcfd" stroke="#fcfcfd"/>
        <path d="m728 306 106-11-110-56Z" fill="#ebf0f2" stroke="#ebf0f2"/>
        <path d="M817 509 695 362l-35 118Z" fill="#e4ebed" stroke="#e4ebed"/>
        <path d="m210 77-95 6 119 109Z" fill="#dee6e9" stroke="#dee6e9"/>
        <path d="m195 0-80 83 95-6ZM573 600h154l-67-120Z" fill="#fff" stroke="#fff"/>
        <path d="M314 0H195l15 77ZM823 373l11-78-106 11Z" fill="#e8edf0" stroke="#e8edf0"/>
        <path d="M795 0H669l30 113Z" fill="#f5f7f8" stroke="#f5f7f8"/>
        <path d="m0 467 68 72 29-103Z" fill="#ebf0f2" stroke="#ebf0f2"/>
        <path d="M97 436 68 539l115-78Z" fill="#f8fafb" stroke="#f8fafb"/>
        <path d="m834 295-8-104-102 48Z" fill="#ebf0f2" stroke="#ebf0f2"/>
        <path d="M770 134 795 0l-96 113Z" fill="#e4ebed" stroke="#e4ebed"/>
        <path d="M0 239v84l65-93Z" fill="#fff" stroke="#fff"/>
        <path d="M65 230 0 323l103-43Z" fill="#e1e8eb" stroke="#e1e8eb"/>
        <path d="m727 600 90-91-157-29Z" fill="#fff" stroke="#fff"/>
        <path d="m823 373 77-40-66-38Z" fill="#f1f5f6" stroke="#f1f5f6"/>
        <path d="M0 323v74l97 39ZM0 64v175l65-9Z" fill="#eef2f4" stroke="#eef2f4"/>
        <path d="M0 600h73l-5-61Z" fill="#dee6e9" stroke="#dee6e9"/>
        <path d="m68 539 5 61h116Z" fill="#e8edf0" stroke="#e8edf0"/>
        <path d="M0 397v70l97-31Z" fill="#f8fafb" stroke="#f8fafb"/>
        <path d="M727 600h77l13-91Z" fill="#e1e8eb" stroke="#e1e8eb"/>
        <path d="M900 387v-54l-77 40Z" fill="#eef2f4" stroke="#eef2f4"/>
        <path d="m834 295 66-134-74 30Z" fill="#e8edf0" stroke="#e8edf0"/>
        <path d="m900 387-77-14-6 136Z" fill="#dee6e9" stroke="#dee6e9"/>
        <path d="M900 527V387l-83 122Z" fill="#e1e8eb" stroke="#e1e8eb"/>
        <path d="M195 0H69l46 83Z" fill="#f8fafb" stroke="#f8fafb"/>
        <path d="M115 83 0 64l65 166ZM900 161l-130-27 56 57Z" fill="#ebf0f2" stroke="#ebf0f2"/>
        <path d="M900 76 795 0l-25 134Z" fill="#e4ebed" stroke="#e4ebed"/>
        <path d="M900 333V161l-66 134Z" fill="#e8edf0" stroke="#e8edf0"/>
        <path d="M69 0 0 64l115 19Z" fill="#f5f7f8" stroke="#f5f7f8"/>
        <path d="M0 467v133l68-61ZM804 600l96-73-83-18Z" fill="#ebf0f2" stroke="#ebf0f2"/>
        <path d="M900 161V76l-130 58Z" fill="#f5f7f8" stroke="#f5f7f8"/>
        <path d="M69 0H0v64Z" fill="#fcfcfd" stroke="#fcfcfd"/>
        <path d="M804 600h96v-73ZM900 76V0H795Z" fill="#f8fafb" stroke="#f8fafb"/>
    </g>
</svg>
